HIERARCHY
ROOT Hips
{
  OFFSET 179.979 97.3047 303.174
  CHANNELS 6 Xposition Yposition Zposition Zrotation Xrotation Yrotation
  JOINT Spine
  {
    OFFSET 0.000859786 9.92346 -1.22733
    CHANNELS 3 Zrotation Xrotation Yrotation
    JOINT Spine1
    {
      OFFSET 0 11.732 0
      CHANNELS 3 Zrotation Xrotation Yrotation
      JOINT Spine2
      {
        OFFSET 0 13.4588 0
        CHANNELS 3 Zrotation Xrotation Yrotation
        JOINT Neck
        {
          OFFSET 2.54812e-05 15.0278 0.877907
          CHANNELS 3 Zrotation Xrotation Yrotation
          JOINT Head
          {
            OFFSET 0 10.3218 3.14243
            CHANNELS 3 Zrotation Xrotation Yrotation
            End Site
            {
              OFFSET 0 0 0
            }
          }
        }
        JOINT LeftShoulder
        {
          OFFSET 6.10582 9.10629 0.757062
          CHANNELS 3 Zrotation Xrotation Yrotation
          JOINT LeftArm
          {
            OFFSET 0 12.9223 0
            CHANNELS 3 Zrotation Xrotation Yrotation
            JOINT LeftForeArm
            {
              OFFSET 0 27.4047 0
              CHANNELS 3 Zrotation Xrotation Yrotation
              JOINT LeftHand
              {
                OFFSET -1.28204e-05 27.6145 0
                CHANNELS 3 Zrotation Xrotation Yrotation
                End Site
                {
                  OFFSET 0 0 0
                }
              }
            }
          }
        }
        JOINT RightShoulder
        {
          OFFSET -6.1057 9.10638 0.757076
          CHANNELS 3 Zrotation Xrotation Yrotation
          JOINT RightArm
          {
            OFFSET 0 12.9223 0
            CHANNELS 3 Zrotation Xrotation Yrotation
            JOINT RightForeArm
            {
              OFFSET 0 27.4047 0
              CHANNELS 3 Zrotation Xrotation Yrotation
              JOINT RightHand
              {
                OFFSET 1.28428e-05 27.6145 1.44975e-05
                CHANNELS 3 Zrotation Xrotation Yrotation
                End Site
                {
                  OFFSET 0 0 0
                }
              }
            }
          }
        }
      }
    }
  }
  JOINT LeftUpLeg
  {
    OFFSET 9.12387 -6.65719 -0.0554031
    CHANNELS 3 Zrotation Xrotation Yrotation
    JOINT LeftLeg
    {
      OFFSET 0 40.5994 0
      CHANNELS 3 Zrotation Xrotation Yrotation
      JOINT LeftFoot
      {
        OFFSET 0 42.099 0
        CHANNELS 3 Zrotation Xrotation Yrotation
        JOINT LeftToeBase
        {
          OFFSET 0 15.7216 0
          CHANNELS 3 Zrotation Xrotation Yrotation
          End Site
          {
            OFFSET 0 0 0
          }
        }
      }
    }
  }
  JOINT RightUpLeg
  {
    OFFSET -9.12503 -6.6556 -0.0553527
    CHANNELS 3 Zrotation Xrotation Yrotation
    JOINT RightLeg
    {
      OFFSET 0 40.5994 0
      CHANNELS 3 Zrotation Xrotation Yrotation
      JOINT RightFoot
      {
        OFFSET 0 42.099 0
        CHANNELS 3 Zrotation Xrotation Yrotation
        JOINT RightToeBase
        {
          OFFSET 0 15.7216 0
          CHANNELS 3 Zrotation Xrotation Yrotation
          End Site
          {
            OFFSET 0 0 0
          }
        }
      }
    }
  }
}
MOTION
Frames:	10
Frame Time:	0.0333333
11.9399 97.6324 518.477 7.52391 -5.02725 59.793 -1.00068 -3.87722 -0.519564 -1.98469 6.19929 -0.743491 -1.89522 12.7932 -0.758596 -10.0868 -7.1496 -10.1066 2.42059 -16.6222 -12.9459 -104.723 -13.0926 90.7151 34.7056 50.8648 -6.46879 52.6306 -19.5083 -0.63962 -5.28879 2.17683 -30.4546 101.247 -3.54495 -92.5359 -14.2231 56.7199 -18.3535 -41.2494 -12.454 0.847536 9.31647 -10.3882 -4.58697 178.136 -0.957172 -11.7268 -2.5388 -25.5906 -4.71735 44.9209 82.977 -38.4321 -0.96527 26.367 -3.60229 177.568 17.747 -1.90309 5.87315 -67.1999 16.9018 -18.9335 63.7764 19.1396 0.963542 26.3682 3.55537 
15.4913 97.8249 520.222 6.64903 -5.00194 60.245 -0.771661 -4.10633 -1.16716 -1.49196 5.74923 -2.11228 -1.24129 12.3391 -2.15187 -8.82617 -8.12951 -9.57975 2.18365 -16.203 -11.9549 -103.989 -12.6807 90.7939 37.8919 48.7209 -9.45213 54.2501 -19.2157 -0.594584 -5.24789 1.443 -28.385 101.59 -3.8944 -92.5041 -7.85331 58.9665 -27.7173 -35.2252 -11.612 0.782322 10.8411 -7.97385 -4.37753 178.596 -4.55233 -11.2302 -3.43702 -22.3468 -4.60761 45.9809 83.4506 -39.615 -0.96527 26.367 -3.60229 179.958 19.9387 -4.87177 7.34224 -59.8221 18.3528 -22.1591 67.2564 23.5095 0.963542 26.3682 3.55537 
19.1541 97.7527 521.913 5.65305 -4.90247 60.596 -0.534364 -4.34896 -1.75516 -0.992048 5.2654 -3.36136 -0.59498 11.8483 -3.42043 -6.91268 -9.23094 -8.96503 1.65516 -16.1596 -10.699 -103.069 -12.389 90.8355 39.9747 46.407 -11.4101 55.6409 -19.0597 -0.559389 -5.18495 1.37618 -27.755 101.982 -4.27515 -92.4684 -0.15856 60.0601 -37.4539 -29.6806 -10.8464 0.713398 12.0073 -4.75967 -6.63673 178.912 -7.65868 -10.1774 -4.16037 -19.7232 -4.79417 49.6304 83.8594 -43.6176 -0.96527 26.367 -3.60229 -178.307 21.4377 -7.19177 7.63135 -49.9326 18.8652 -25.0194 68.667 27.3833 0.963542 26.3682 3.55537 
22.8617 97.4666 523.549 4.70108 -4.75035 60.9611 -0.313708 -4.55279 -2.24276 -0.534311 4.85389 -4.40195 -0.0158237 11.4285 -4.47521 -4.24194 -10.2923 -8.20613 0.995782 -16.5314 -9.14896 -102.131 -12.2622 90.8377 41.6512 44.4351 -13.607 56.783 -19.0077 -0.533618 -5.24644 1.58541 -28.0963 102.508 -4.59171 -92.4564 8.32993 60.0212 -46.7499 -24.9316 -10.4568 0.65704 12.8261 -2.05319 -10.2425 179.115 -10.2509 -8.67314 -4.69751 -18.03 -5.20427 56.375 84.2559 -50.9034 -0.96527 26.367 -3.60229 -177.406 21.8211 -8.80372 7.30291 -37.7063 18.2033 -24.817 68.1622 28.1255 0.963542 26.3682 3.55537 
26.6208 96.9663 525.163 3.89645 -4.56616 61.199 -0.105994 -4.71015 -2.56464 -0.111434 4.53158 -5.10533 0.488741 11.0994 -5.18662 -0.898582 -11.1746 -7.21581 0.421303 -16.9892 -7.27955 -101.447 -12.2153 90.8293 43.162 42.7526 -16.1804 57.381 -18.9733 -0.519498 -5.43208 1.87843 -28.6394 103.148 -4.79444 -92.4759 16.7137 59.0787 -54.8465 -20.8831 -10.4711 0.616386 13.5012 -0.410187 -12.7663 179.265 -12.6779 -7.56591 -5.12821 -17.0113 -5.39482 65.304 84.7712 -60.3538 -0.96527 26.367 -3.60229 -176.661 21.5921 -10.4977 6.51953 -24.7125 16.8039 -23.4666 66.5459 26.7308 0.963542 26.3682 3.55537 
30.481 96.2726 526.834 3.3522 -4.51505 60.839 0.132908 -4.80061 -2.66212 0.366151 4.3396 -5.36725 0.996502 10.9046 -5.45033 2.59592 -11.7579 -5.89291 0.165209 -17.1622 -5.12653 -100.995 -12.2547 90.81 44.3109 41.3361 -18.1217 57.0333 -19.0086 -0.527654 -5.66533 2.33276 -29.7882 103.73 -4.82962 -92.524 23.9144 57.6596 -60.8665 -17.4695 -10.6827 0.585786 14.1542 0.699926 -13.4475 179.345 -15.106 -7.49047 -5.42817 -16.8862 -5.3137 73.7316 85.2984 -69.3668 -0.96527 26.367 -3.60229 -176.354 21.7076 -12.0889 5.76091 -14.4695 14.9439 -18.7069 65.7536 24.6928 0.963542 26.3682 3.55537 
34.7391 95.0427 528.775 3.59946 -4.3828 59.904 0.335944 -4.7908 -2.65139 0.772324 4.34935 -5.40274 1.40682 10.914 -5.48633 5.64966 -11.8843 -4.18309 0.158759 -17.04 -2.73741 -100.634 -12.4596 90.7602 44.4681 40.3946 -18.4481 55.6831 -19.2043 -0.566133 -5.81837 3.0238 -32.2024 104.092 -4.67785 -92.5918 29.2218 55.9308 -64.5659 -14.9277 -10.9338 0.564367 14.6283 1.85913 -13.4669 178.788 -17.6743 -8.33828 -5.50711 -18.5587 -5.06046 87.0417 85.9527 -83.5186 -0.96527 26.367 -3.60229 -176.485 22.4004 -11.5386 6.02794 -12.6707 13.3765 -15.6727 71.5054 27.6552 0.963542 26.3682 3.55537 
38.9971 94.1268 530.724 3.49292 -5.43673 59.367 0.808216 -4.73166 -2.77068 1.72468 4.44129 -5.77506 2.40278 11.0017 -5.86513 8.16373 -11.3534 -2.3379 -0.168244 -16.8083 -0.281913 -100.338 -12.6627 90.7152 43.0152 40.5388 -16.8437 53.6729 -19.5505 -0.622244 -5.86022 3.74272 -35.3496 104.229 -4.55376 -92.6325 31.799 54.3948 -65.7381 -13.6064 -11.1221 0.554634 14.6284 2.63817 -13.5782 179.507 -20.4963 -8.90389 -5.06208 -20.1031 -4.31703 83.3587 86.7214 -81.2054 -0.96527 26.367 -3.60229 -174.884 23.6481 -8.70151 6.38423 -18.2538 13.2591 -11.1939 70.7987 24.8262 0.963542 26.3682 3.55537 
43.4939 93.495 532.848 3.2748 -6.95635 60.1962 1.38541 -4.75344 -3.11167 2.8908 4.35506 -6.61896 3.66705 10.9048 -6.72051 10.3157 -10.3188 -0.910902 -1.24769 -16.4164 1.81327 -100.169 -12.6647 90.7106 40.1635 42.0022 -13.4852 51.2123 -19.958 -0.686802 -5.89399 4.27397 -38.2971 104.26 -4.73379 -92.5957 32.6653 53.0572 -65.3251 -13.5744 -11.2052 0.557169 14.1634 2.33372 -12.994 -178.47 -22.1669 -10.275 -3.75333 -23.7963 -2.23206 35.2049 87.1705 -34.4378 -0.96527 26.367 -3.60229 -172.526 24.0247 -5.60095 6.33596 -23.7568 13.7137 -17.523 64.177 19.268 0.963542 26.3682 3.55537 
47.7434 93.3772 534.957 2.55644 -9.25365 62.0352 2.14346 -4.82223 -3.45772 4.41371 4.15047 -7.51998 5.29416 10.6874 -7.63159 12.0238 -9.61983 -0.16521 -2.51951 -15.6578 3.16397 -100.199 -12.6629 90.7123 37.3794 44.4603 -9.48068 48.2289 -20.1742 -0.748469 -5.94286 4.85688 -41.0398 104.36 -5.14573 -92.5141 32.1323 52.4996 -63.2724 -14.3411 -11.298 0.569981 13.6847 1.3332 -10.8256 -174.318 -21.5067 -12.5716 -0.958183 -29.9858 1.67527 -7.00804 82.931 6.56287 -0.96527 26.367 -3.60229 -169.699 22.5158 -4.69487 6.59456 -26.7445 15.4309 -26.0129 64.4705 21.4935 0.963542 26.3682 3.55537 
